<!DOCTYPE svg PUBLIC "-//W3C//DTD SVG 20010904//EN" "http://www.w3.org/TR/2001/REC-SVG-20010904/DTD/svg10.dtd">
<svg version="1.0" xmlns="http://www.w3.org/2000/svg" width="800px" height="800px" viewBox="0 0 8000 8000" preserveAspectRatio="xMidYMid meet">
<g id="layer101" fill="#0c7fd6" stroke="none">
<path d="M3354 4466 c-35 -35 -36 -39 -31 -89 3 -29 17 -80 32 -114 27 -62 27 -62 6 -141 -11 -43 -21 -104 -21 -136 0 -187 115 -368 287 -453 70 -35 84 -38 177 -41 83 -3 112 0 164 17 64 22 64 22 120 -5 34 -16 80 -29 114 -32 55 -4 59 -3 94 32 35 35 36 39 31 89 -3 29 -17 80 -32 114 -27 61 -27 61 -6 144 25 98 26 161 6 248 -48 201 -230 367 -418 379 -59 3 -75 1 -86 -12 -21 -25 12 -56 59 -56 20 0 61 -7 91 -16 194 -58 317 -249 294 -459 -3 -36 -10 -67 -15 -70 -4 -3 -30 26 -57 63 -123 168 -322 362 -476 465 -105 70 -174 100 -239 105 -55 4 -59 3 -94 -32z m137 -47 c19 -7 38 -15 43 -19 4 -5 -17 -34 -49 -66 -62 -63 -66 -63 -86 10 -15 56 -5 86 30 86 15 0 43 -5 62 -11z m230 -134 c224 -168 460 -454 521 -633 35 -103 14 -129 -84 -102 -50 14 -57 29 -25 52 30 22 35 49 12 68 -12 10 -19 9 -37 -4 -107 -77 -184 -106 -282 -106 -313 0 -510 335 -367 625 33 67 127 165 158 165 10 0 57 -29 104 -65z"/>
</g>
<g id="layer102" fill="#0c7fd6" stroke="none">
<path d="M3354 4466 c-35 -35 -36 -39 -31 -89 3 -29 17 -80 32 -114 27 -62 27 -62 6 -141 -11 -43 -21 -104 -21 -136 0 -187 115 -368 287 -453 70 -35 84 -38 177 -41 83 -3 112 0 164 17 64 22 64 22 120 -5 34 -16 80 -29 114 -32 55 -4 59 -3 94 32 35 35 36 39 31 90 -3 30 -10 62 -15 72 -41 79 -45 101 -29 161 9 32 19 79 22 105 5 44 3 47 -25 61 -16 9 -32 12 -34 9 -2 -4 -7 -35 -11 -70 -4 -34 -11 -64 -15 -67 -5 -3 -23 16 -41 42 -60 86 -234 277 -328 358 -169 146 -306 226 -403 233 -55 4 -59 3 -94 -32z m137 -47 c19 -7 38 -15 43 -19 4 -5 -17 -34 -49 -66 -62 -63 -65 -63 -86 8 -17 54 -5 88 30 88 15 0 43 -5 62 -11z m230 -134 c224 -168 460 -454 521 -633 35 -103 14 -129 -84 -102 -50 14 -57 29 -25 52 30 22 35 49 12 68 -12 10 -19 9 -37 -4 -107 -77 -184 -106 -282 -106 -313 0 -510 335 -367 625 33 67 127 165 158 165 10 0 57 -29 104 -65z"/>
<path d="M3791 4461 c-8 -14 -6 -23 9 -36 11 -10 26 -15 34 -12 13 5 13 10 0 36 -18 36 -29 39 -43 12z"/>
<path d="M4106 4312 c-3 -5 3 -17 13 -26 11 -10 22 -13 25 -8 3 5 -3 17 -13 26 -11 10 -22 13 -25 8z"/>
</g>
<g id="layer103" fill="#0c7fd6" stroke="none">
<path d="M3347 4303 c-4 -3 -2 -12 4 -20 6 -7 8 -13 5 -13 -4 0 -2 -9 4 -20 6 -11 15 -18 21 -15 5 4 4 15 -3 28 -7 12 -12 25 -13 29 0 11 -11 18 -18 11z"/>
<path d="M3511 4296 c-7 -8 -8 -17 -3 -20 6 -3 15 1 21 8 7 8 8 17 3 20 -6 3 -15 -1 -21 -8z"/>
<path d="M3389 4213 c-1 -5 -1 -12 0 -17 1 -4 -3 -13 -8 -20 -15 -18 -31 -93 -37 -171 -15 -189 102 -382 283 -472 67 -33 85 -38 169 -41 94 -4 147 4 216 32 37 16 37 16 22 46 -18 35 -15 34 -62 14 -59 -25 -187 -30 -257 -9 -200 58 -321 244 -300 458 3 38 15 89 25 113 18 42 19 45 2 50 -9 3 -25 10 -34 15 -10 5 -19 6 -19 2z"/>
</g>
<g id="layer104" fill="#0c7fd6" stroke="none">
<path d="M3345 3950 c-4 -6 -3 -16 3 -22 6 -6 12 -6 17 2 4 6 3 16 -3 22 -6 6 -12 6 -17 -2z"/>
<path d="M3366 3842 c-12 -20 66 -152 123 -210 65 -65 172 -128 199 -117 15 6 14 9 -5 22 -13 9 -23 24 -23 34 0 11 -17 28 -44 44 -54 32 -127 109 -155 164 -12 23 -29 41 -38 41 -9 0 -24 7 -34 16 -10 9 -20 11 -23 6z"/>
</g>
<g id="layer105" fill="#ffffff" stroke="none">
<path d="M2420 4391 c-87 -27 -181 -121 -206 -208 -31 -105 -3 -211 75 -291 89 -92 212 -117 319 -67 30 14 56 25 58 25 2 0 5 -66 6 -147 3 -148 3 -148 63 -148 60 0 60 0 60 415 0 415 0 415 -60 415 -54 0 -60 -2 -63 -22 -3 -21 -4 -21 -59 8 -57 30 -134 38 -193 20z m174 -149 c50 -29 77 -87 73 -153 -4 -68 -33 -114 -91 -140 -171 -78 -320 123 -196 265 16 18 44 38 62 44 43 14 113 7 152 -16z"/>
<path d="M5388 4387 c-86 -25 -168 -97 -205 -184 -24 -56 -22 -166 4 -224 71 -158 255 -230 403 -157 30 15 71 43 90 63 34 35 34 35 -123 193 -86 86 -157 163 -157 170 0 8 18 12 58 12 60 0 109 -21 142 -63 17 -21 17 -21 71 -1 31 11 55 26 57 35 4 24 -90 117 -141 139 -59 26 -141 33 -199 17z m24 -344 c54 -54 98 -102 98 -107 0 -4 -26 -7 -58 -4 -68 5 -112 31 -136 82 -16 34 -22 126 -9 126 4 0 52 -44 105 -97z"/>
<path d="M6760 4387 c-87 -24 -156 -82 -202 -170 -18 -33 -23 -58 -23 -122 0 -90 18 -135 81 -205 84 -93 229 -122 329 -67 33 19 52 24 59 17 15 -15 102 -12 115 4 8 9 11 90 9 272 -3 259 -3 259 -61 262 -52 3 -59 1 -64 -17 -3 -12 -6 -21 -8 -21 -1 0 -22 11 -46 24 -55 31 -130 40 -189 23z m160 -149 c58 -40 75 -72 75 -143 0 -71 -17 -103 -75 -142 -63 -44 -176 -24 -223 39 -41 54 -41 152 0 206 47 63 160 83 223 40z"/>
<path d="M894 4375 c-6 -14 269 -787 289 -812 5 -7 22 -13 37 -13 15 0 32 6 37 13 19 25 294 799 289 813 -4 10 -22 14 -60 14 -65 0 -60 6 -115 -147 -22 -59 -42 -116 -46 -126 -7 -16 -19 -17 -107 -15 -100 3 -100 3 -147 133 -26 72 -50 136 -54 143 -12 18 -116 16 -123 -3z m373 -417 c-3 -7 -14 -37 -23 -65 -10 -29 -20 -53 -24 -53 -3 0 -14 24 -25 53 -10 28 -20 58 -23 65 -3 8 11 12 48 12 37 0 50 -3 47 -12z"/>
<path d="M1637 4384 c-13 -13 -8 -519 5 -532 15 -15 100 -16 115 -1 7 7 21 4 47 -12 30 -17 48 -21 96 -17 71 5 121 39 157 108 23 42 23 51 21 249 -3 206 -3 206 -63 206 -60 0 -60 0 -62 -185 -2 -111 -7 -194 -14 -206 -23 -44 -109 -59 -148 -26 -20 16 -21 27 -23 217 -3 200 -3 200 -63 203 -34 2 -64 0 -68 -4z"/>
<path d="M2927 4384 c-4 -4 -7 -123 -7 -264 0 -291 -2 -283 77 -278 41 3 48 6 51 26 4 25 14 28 32 8 18 -23 99 -51 111 -39 6 6 9 36 7 69 -3 56 -4 59 -33 64 -91 19 -108 57 -115 260 -5 155 -5 155 -60 158 -31 2 -59 0 -63 -4z"/>
<path d="M6040 4381 c-87 -27 -181 -121 -206 -208 -31 -105 -3 -211 75 -291 89 -92 212 -117 319 -67 30 14 56 25 58 25 2 0 5 -66 6 -147 3 -148 3 -148 63 -148 60 0 60 0 60 415 0 415 0 415 -60 415 -54 0 -60 -2 -63 -22 -3 -21 -4 -21 -59 8 -57 30 -134 38 -193 20z m174 -149 c50 -29 77 -87 73 -153 -4 -68 -33 -114 -91 -140 -171 -78 -320 123 -196 265 16 18 44 38 62 44 43 14 113 7 152 -16z"/>
<path d="M4477 4374 c-13 -13 -8 -519 5 -532 14 -14 104 -16 113 -2 3 5 19 1 38 -10 46 -29 108 -26 145 5 30 25 30 25 68 0 28 -19 50 -25 91 -25 49 0 59 4 88 33 42 42 47 80 43 337 -3 195 -3 195 -68 195 -65 0 -65 0 -70 -215 -5 -215 -5 -215 -36 -218 -17 -2 -36 3 -42 11 -8 9 -12 83 -14 218 -3 204 -3 204 -68 204 -65 0 -65 0 -71 -215 -3 -118 -6 -216 -7 -217 -1 -2 -15 -3 -31 -3 -52 0 -56 15 -61 234 -5 201 -5 201 -60 204 -31 2 -59 0 -63 -4z"/>
</g>


</svg>